<?xml version="1.0" standalone="no"?>
<!DOCTYPE svg PUBLIC "-//W3C//DTD SVG 20010904//EN"
 "http://www.w3.org/TR/2001/REC-SVG-20010904/DTD/svg10.dtd">
<svg version="1.0" xmlns="http://www.w3.org/2000/svg"
 width="1280.000000pt" height="1136.000000pt" viewBox="0 0 1280.000000 1136.000000"
 preserveAspectRatio="xMidYMid meet">
<g transform="translate(0.000000,1136.000000) scale(0.100000,-0.100000)"
fill="#000000" stroke="none">
<path d="M7300 11335 c-140 -31 -209 -58 -305 -120 -206 -133 -408 -329 -691
-670 -253 -304 -3310 -3944 -3334 -3969 -19 -19 14 -12 -1794 -410 -489 -108
-908 -205 -930 -215 -49 -21 -106 -82 -140 -150 -77 -150 -122 -519 -97 -791
6 -69 15 -181 21 -250 43 -512 172 -1160 320 -1610 172 -524 336 -746 559
-758 36 -2 588 20 1226 48 l1160 53 1570 -1043 c1500 -996 1574 -1047 1664
-1137 164 -163 323 -251 532 -292 131 -26 152 -26 264 -1 155 33 238 68 348
142 292 198 548 578 771 1143 312 790 553 2000 655 3290 41 524 46 656 46
1355 -1 773 -18 1178 -75 1800 -148 1589 -463 2702 -918 3243 -137 163 -335
295 -497 332 -38 9 -86 20 -106 26 -55 14 -133 9 -249 -16z"/>
<path d="M10630 10325 c0 -3 27 -38 61 -78 237 -281 453 -617 653 -1017 308
-618 521 -1275 660 -2040 143 -783 178 -1687 100 -2530 -139 -1499 -654 -2886
-1406 -3787 -37 -45 -68 -84 -68 -87 0 -19 229 115 352 206 194 144 434 375
590 568 673 836 1110 2085 1198 3425 5 88 15 228 21 310 22 290 -13 911 -77
1370 -104 742 -298 1404 -583 1991 -372 763 -834 1301 -1396 1623 -85 49 -105
57 -105 46z"/>
<path d="M9376 9659 c3 -6 43 -57 88 -113 210 -261 372 -521 542 -871 378
-779 592 -1644 654 -2640 14 -218 14 -741 0 -960 -61 -992 -284 -1885 -665
-2660 -173 -353 -342 -619 -563 -888 -35 -43 -62 -80 -60 -83 7 -6 175 93 263
155 122 86 238 187 366 318 964 994 1426 2894 1144 4708 -213 1369 -830 2488
-1640 2972 -107 64 -140 80 -129 62z"/>
</g>
</svg>
